<svg width="157" height="15" viewBox="0 0 157 15" fill="none" xmlns="http://www.w3.org/2000/svg">
<path d="M4.69148 9.62557C4.18077 9.62557 4.1999 9.62557 4.02062 10.1812L3.21275 12.6342C2.81859 13.8425 2.89422 13.9065 3.62781 14.0075L4.1999 14.1129C4.34182 14.2571 4.32046 14.6263 4.16076 14.7006C3.5286 14.661 2.88087 14.661 2.06677 14.6419C1.42082 14.6419 0.805129 14.661 0.114696 14.7006C-0.0232122 14.605 -0.0450106 14.294 0.0946774 14.1129L0.685905 14.0075C1.26067 13.9203 1.4751 13.7468 1.77405 13.0666C2.00582 12.5377 2.32034 11.6786 2.7354 10.5696L5.44064 3.28177C5.69999 2.62515 5.87794 2.13758 5.81788 1.78791C6.50831 1.64733 7.16049 0.808316 7.20409 0.808316C7.35756 0.808316 7.45366 0.863479 7.53462 0.969802C7.85137 1.8889 8.1085 2.85203 8.42524 3.77379L11.2657 12.3548C11.7186 13.7219 11.8173 13.8669 12.8259 14.048L13.1204 14.1129C13.2774 14.2571 13.2774 14.605 13.1422 14.7006C12.3267 14.661 11.6016 14.6419 10.5748 14.6419C9.72514 14.6419 8.85632 14.6779 8.16722 14.7006C8.00484 14.605 7.98705 14.2326 8.1085 14.1129L8.54135 14.048C9.2518 13.9719 9.31142 13.8425 9.05695 12.9647L8.12362 10.1812C7.92877 9.62557 7.86694 9.62557 7.32064 9.62557H4.69148ZM7.06217 8.70825C7.6098 8.70825 7.69611 8.66421 7.53462 8.1713L6.70717 5.71341C6.36863 4.6355 6.25074 4.24713 6.14842 4.10211H6.11416C6.03231 4.24713 5.87749 4.7565 5.51804 5.71341L4.69104 8.11613C4.47839 8.70825 4.53222 8.70825 5.01 8.70825H7.06217Z" fill="#253746"/>
<path d="M16.02 6.57867C16.02 6.86517 16.0578 6.94613 16.1788 6.94613C16.8096 6.55421 17.4627 6.29352 18.2532 6.29352C20.5603 6.29352 22.0204 8.07476 22.0204 10.3387C22.0204 13.2517 19.9295 14.927 17.3386 14.927C15.8848 14.927 14.9545 14.3754 14.7228 14.3754C14.4834 14.3754 14.3437 14.5574 14.221 14.6997C14.1858 14.7255 14.1453 14.7255 14.0848 14.7255C14.0079 14.7255 13.8846 14.641 13.8846 14.5787C13.8846 14.4942 13.9478 13.4109 13.9478 12.6555V3.42502C13.9478 2.05705 13.9278 1.90758 13.4994 1.64689L13.216 1.45871C13.099 1.38353 13.0777 1.05121 13.216 0.994269C13.9643 0.764718 14.9941 0.330528 15.8042 0.00444114C15.9239 -0.0164676 16.0396 0.0742851 16.0774 0.171266C16.0396 0.994713 16.02 2.25635 16.02 3.13852V6.57867ZM16.02 11.369C16.02 12.2685 16.1423 12.9839 16.452 13.4118C16.7296 13.802 17.2038 14.1125 17.7741 14.1125C19.0998 14.1125 19.8272 12.8237 19.8272 11.0803C19.8272 8.68601 18.6073 7.39856 17.2033 7.39856C16.8092 7.39856 16.3924 7.54003 16.2371 7.66103C16.0578 7.78515 16.0196 8.05296 16.0196 8.74695L16.02 11.369Z" fill="#253746"/>
<path d="M25.4948 9.79284C25.1175 9.79284 25.0806 9.81463 25.0806 10.058C25.0806 11.8988 26.2986 13.3749 28.0567 13.3749C28.8517 13.3749 29.5017 13.1058 29.9581 12.3548C30.1516 12.2859 30.3705 12.4914 30.3865 12.6787C29.7161 14.3091 28.2578 14.9279 27.0482 14.9279C24.7652 14.9279 23.2451 13.168 23.2451 10.8343C23.2451 8.52274 24.7652 6.29441 27.4064 6.29441C28.8735 6.29441 30.3705 7.27311 30.3705 9.05302C30.3705 9.23942 30.3491 9.3671 30.2633 9.52191C30.1512 9.71098 29.6956 9.79373 28.9104 9.79373H25.4948V9.79284ZM27.3071 8.97473C27.8828 8.97473 28.1377 8.91067 28.2783 8.83415C28.3913 8.74695 28.4731 8.58057 28.4731 8.39729C28.4731 7.66104 28.0229 7.07248 27.1715 7.07248C25.8493 7.07248 25.2345 8.39729 25.2345 8.83415C25.2345 8.91111 25.2781 8.97473 25.513 8.97473H27.3071Z" fill="#253746"/>
<path d="M32.0663 9.20339C32.0663 8.2754 32.0663 8.02939 31.5694 7.72421L31.3376 7.58007C31.2745 7.49732 31.2745 7.21083 31.3554 7.1054C32.206 6.8238 33.2483 6.36825 33.8409 6.0048C33.9597 6.0048 34.078 6.0653 34.1172 6.19031C34.0958 6.57868 34.0785 6.92389 34.0785 7.1054C34.0785 7.2522 34.159 7.35497 34.2751 7.35497C34.8859 6.90343 35.5403 6.29441 36.2071 6.29441C36.9016 6.29441 37.2962 6.76641 37.2962 7.29536C37.2962 8.093 36.7232 8.48537 36.1956 8.48537C35.9936 8.48537 35.8165 8.42042 35.6591 8.31543C35.1644 7.97022 34.8258 7.9324 34.7093 7.9324C34.2595 7.9324 34.1376 8.39773 34.1376 9.40313V12.2062C34.1376 13.7219 34.2173 13.9488 34.9077 14.0275L35.6777 14.1129C35.817 14.2571 35.7952 14.6263 35.6364 14.7006C34.4553 14.661 33.7848 14.6419 33.0522 14.6419C32.4026 14.6419 31.746 14.661 31 14.7006C30.8478 14.6263 30.826 14.2571 30.9631 14.1129L31.3118 14.048C31.9822 13.9488 32.0677 13.7219 32.0677 12.2062V9.20339H32.0663Z" fill="#253746"/>
<path d="M43.9669 6.57867C44.2227 6.82379 44.3611 7.1481 44.3611 7.62455C44.3611 8.27539 44.0248 8.58012 43.8677 8.58012C43.7272 8.58012 43.6306 8.54142 43.4896 8.35991C43.0585 7.76602 42.4655 7.10495 41.6928 7.10495C40.5735 7.10495 39.408 8.2527 39.408 10.1808C39.408 11.8343 40.4329 13.4114 42.2271 13.4114C43.5096 13.4114 43.9669 12.922 44.3611 12.3317C44.539 12.3059 44.753 12.4527 44.7762 12.6942C44.067 14.3523 42.5447 14.927 41.3026 14.927C40.2563 14.927 39.2238 14.4955 38.5609 13.8251C37.8696 13.1244 37.4141 12.0608 37.4141 10.8783C37.4141 8.48492 39.0934 6.29351 42.2649 6.29351C42.8379 6.29351 43.4113 6.3678 43.9665 6.57823L43.9669 6.57867Z" fill="#253746"/>
<path d="M46.452 9.20339C46.452 8.2754 46.452 8.02939 45.9604 7.72421L45.7224 7.58007C45.6583 7.4991 45.6583 7.21083 45.7384 7.1054C46.5894 6.8238 47.6362 6.36825 48.2248 6.0048C48.344 6.0048 48.4659 6.0653 48.5033 6.19031C48.481 6.57868 48.4663 6.92389 48.4663 7.1054C48.4663 7.2522 48.5437 7.35497 48.659 7.35497C49.2729 6.90343 49.9233 6.29441 50.5963 6.29441C51.289 6.29441 51.6787 6.76641 51.6787 7.29536C51.6787 8.093 51.1079 8.48537 50.5732 8.48537C50.3837 8.48537 50.2004 8.42042 50.0452 8.31543C49.5496 7.97022 49.2101 7.9324 49.0923 7.9324C48.6403 7.9324 48.5237 8.39773 48.5237 9.40313V12.2062C48.5237 13.7219 48.6056 13.9488 49.2942 14.0275L50.0621 14.1129C50.2009 14.2571 50.1817 14.6263 50.0242 14.7006C48.836 14.661 48.1678 14.6419 47.4369 14.6419C46.7883 14.6419 46.1317 14.661 45.387 14.7006C45.2317 14.6263 45.2135 14.2571 45.3496 14.1129L45.7015 14.048C46.3706 13.9488 46.4533 13.7219 46.4533 12.2062V9.20339H46.452Z" fill="#253746"/>
<path d="M60.2838 10.5042C60.2838 13.4118 58.3085 14.9275 55.9597 14.9275C53.6931 14.9275 51.7988 13.4318 51.7988 10.7493C51.7988 8.00625 53.8145 6.29396 56.1211 6.29396C58.3495 6.29396 60.2838 7.84921 60.2838 10.5042ZM56.1999 14.1129C57.5625 14.1129 57.9518 12.4309 57.9518 10.8565C57.9518 9.13532 57.3814 7.1054 55.9245 7.1054C54.92 7.1054 54.129 8.1713 54.129 10.4446C54.129 12.3063 54.779 14.1129 56.1999 14.1129Z" fill="#253746"/>
<path d="M61.8483 9.20339C61.8483 8.2754 61.8483 8.02939 61.3492 7.72421L61.1121 7.58007C61.052 7.4991 61.052 7.21083 61.1361 7.1054C62.004 6.86561 63.0673 6.36825 63.7012 6.0048C63.8364 6.0048 63.917 6.08576 63.9548 6.16806C63.917 6.55465 63.917 6.94658 63.917 7.1054C63.917 7.2522 63.9717 7.29536 64.0887 7.31226C65.063 6.78154 65.5768 6.29396 66.9145 6.29396C67.7602 6.29396 68.4172 6.76597 68.6917 7.14855C68.8092 7.33317 68.9266 7.45951 69.0054 7.45951C69.085 7.45951 69.2038 7.39901 69.444 7.2522C70.3702 6.65831 71.0393 6.29396 71.9655 6.29396C73.6235 6.29396 74.37 7.43149 74.37 9.03167V12.2062C74.37 13.7219 74.4514 13.9488 75.1254 14.048L75.5613 14.1129C75.7362 14.2571 75.6365 14.6263 75.5613 14.7006C74.7143 14.661 74.039 14.6419 73.313 14.6419C72.6599 14.6419 71.9851 14.661 71.2768 14.7006C71.1158 14.6263 71.0971 14.2571 71.2364 14.1129L71.5558 14.048C72.2208 13.9488 72.3005 13.7219 72.3005 12.2062V9.42182C72.3005 8.33768 71.9495 7.51957 70.7034 7.51957C70.1331 7.51957 69.6193 7.82163 69.3813 8.13259C69.1882 8.38216 69.145 8.6264 69.145 9.20383V12.2067C69.145 13.7223 69.2256 13.9492 69.8942 14.0676L70.1949 14.1134C70.3333 14.2575 70.3119 14.6268 70.1509 14.701C69.4613 14.6615 68.8092 14.6423 68.0809 14.6423C67.4283 14.6423 66.7579 14.6615 66.1075 14.701C65.9465 14.6268 65.9282 14.2575 66.0661 14.1134L66.321 14.0676C66.9981 13.9492 67.0764 13.7223 67.0764 12.2067V9.42226C67.0764 8.33812 66.7192 7.52001 65.5772 7.52001C64.9041 7.52001 64.3908 7.84966 64.171 8.1535C63.9357 8.48582 63.9174 8.66421 63.9174 9.46363V12.2067C63.9174 13.7223 63.9948 13.9492 64.663 14.0676L64.9629 14.1134C65.0968 14.2575 65.0803 14.6268 64.9224 14.701C64.2297 14.6615 63.5624 14.6423 62.8315 14.6423C62.1802 14.6423 61.5218 14.6615 60.7789 14.701C60.6214 14.6268 60.6018 14.2575 60.7375 14.1134L61.0956 14.0484C61.7643 13.9492 61.8483 13.7223 61.8483 12.2067V9.20339Z" fill="#253746"/>
<path d="M78.5197 6.57867C78.5197 6.86517 78.5611 6.94613 78.6785 6.94613C79.3111 6.55421 79.9593 6.29352 80.7472 6.29352C83.0582 6.29352 84.5196 8.07565 84.5196 10.3387C84.5196 13.2517 82.4283 14.927 79.8436 14.927C78.3778 14.927 77.4525 14.3754 77.2154 14.3754C76.9747 14.3754 76.8452 14.5574 76.7184 14.6997C76.6824 14.7255 76.6455 14.7255 76.581 14.7255C76.512 14.7255 76.3884 14.641 76.3884 14.5787C76.3884 14.4951 76.4475 13.4109 76.4475 12.6555V3.42502C76.4475 2.05705 76.4262 1.90758 75.9929 1.64689L75.7122 1.45871C75.5947 1.38353 75.5765 1.05121 75.7122 0.994269C76.4689 0.764718 77.489 0.330528 78.3008 0.00444114C78.4196 -0.0164676 78.5384 0.0742851 78.5758 0.171266C78.5384 0.994713 78.5193 2.25635 78.5193 3.13852V6.57867H78.5197ZM78.5197 11.369C78.5197 12.2685 78.638 12.9839 78.9561 13.4118C79.2293 13.802 79.7053 14.1125 80.2743 14.1125C81.5955 14.1125 82.3264 12.8237 82.3264 11.0803C82.3264 8.68601 81.1039 7.39856 79.7053 7.39856C79.3111 7.39856 78.8952 7.54003 78.7364 7.66103C78.5611 7.78515 78.5197 8.05296 78.5197 8.74695V11.369Z" fill="#253746"/>
<path d="M88.1515 12.208C88.1515 13.7219 88.2302 13.9488 88.8998 14.048L89.2521 14.1129C89.3922 14.2571 89.3704 14.6263 89.2143 14.7006C88.4843 14.661 87.8147 14.6419 87.0847 14.6419C86.4352 14.6419 85.759 14.661 85.0134 14.7006C84.8493 14.6263 84.8328 14.2571 84.9694 14.1129L85.327 14.048C85.9957 13.9488 86.078 13.7219 86.078 12.208V9.20383C86.078 8.27584 86.078 8.02983 85.582 7.72465L85.3466 7.58051C85.2888 7.49955 85.2888 7.21127 85.3698 7.10584C86.3907 6.80378 87.3814 6.35135 87.9313 6.00524C88.0501 6.02526 88.1515 6.06574 88.2107 6.16851C88.1733 6.84693 88.1515 7.82207 88.1515 8.66465V12.2085V12.208ZM85.8386 2.30128C85.8386 1.56325 86.3578 1.01117 87.1052 1.01117C87.8526 1.01117 88.3646 1.5637 88.3646 2.30128C88.3646 3.03487 87.8543 3.59006 87.1052 3.59006C86.356 3.59006 85.8386 3.03531 85.8386 2.30128Z" fill="#253746"/>
<path d="M92.0935 9.79284C91.7198 9.79284 91.6815 9.81463 91.6815 10.058C91.6815 11.8988 92.9067 13.3749 94.6608 13.3749C95.4522 13.3749 96.1048 13.1058 96.5568 12.3548C96.7534 12.2859 96.9728 12.4914 96.9937 12.6787C96.317 14.3091 94.861 14.9279 93.6567 14.9279C91.3674 14.9279 89.8451 13.168 89.8451 10.8343C89.8451 8.52274 91.367 6.29441 94.0122 6.29441C95.4713 6.29441 96.9732 7.27311 96.9732 9.05302C96.9732 9.23942 96.9505 9.3671 96.8731 9.52191C96.7539 9.71098 96.2948 9.79373 95.5114 9.79373H92.0939L92.0935 9.79284ZM93.9125 8.97473C94.4846 8.97473 94.7444 8.91067 94.8783 8.83415C94.998 8.74695 95.071 8.58057 95.071 8.39729C95.071 7.66104 94.6212 7.07248 93.7719 7.07248C92.4511 7.07248 91.843 8.39729 91.843 8.83415C91.843 8.91111 91.8764 8.97473 92.1197 8.97473H93.9125Z" fill="#253746"/>
<path d="M108.422 6.73037C108.422 7.89547 107.523 8.26604 107.017 8.57211C108.164 9.34707 108.73 10.0611 109.526 11.3254C109.999 10.6625 110.522 9.61844 110.956 8.6206C111.21 8.03115 111.269 7.87901 110.851 7.80249L110.418 7.72642C110.281 7.58896 110.314 7.35006 110.465 7.28778H111.283C112.047 7.28778 113.448 7.2255 113.79 7.19436C113.896 7.25486 113.935 7.50844 113.818 7.62766L113.136 7.78826C112.357 7.95152 112.047 8.40262 111.535 9.29858C111.18 9.91472 110.64 10.7573 109.988 11.7271C109.897 11.8646 109.912 12.01 110.013 12.1795C110.64 13.2032 111.328 13.8331 112.388 13.8331C112.806 13.8331 113.279 13.6511 113.593 13.4145C113.744 13.4327 113.85 13.5898 113.804 13.7415C113.072 14.5578 112 14.855 111.254 14.855C110.55 14.855 109.792 14.6548 109.505 14.3629C109.297 14.1436 108.98 13.6641 108.794 13.3393C107.807 14.3785 106.852 14.855 105.701 14.855C103.555 14.855 102.722 13.3211 102.691 12.087C102.722 10.4766 103.85 9.5606 104.975 8.95826C104.75 8.75984 103.928 8.14282 103.928 7.05868C103.928 5.66891 105.018 4.73781 106.254 4.73781C107.585 4.73781 108.421 5.66891 108.421 6.72992L108.422 6.73037ZM105.493 9.37821C105.419 9.37821 105.274 9.47208 105.152 9.56105C104.644 9.9383 104.242 10.7244 104.242 11.5007C104.242 12.7961 105.29 13.7125 106.581 13.7125C107.245 13.7125 107.854 13.4327 108.313 12.9999C108.538 12.7961 108.538 12.7014 108.356 12.4086C108.002 11.8228 107.586 11.2364 107.15 10.7422C106.452 9.93874 105.572 9.37865 105.493 9.37865L105.493 9.37821ZM105.244 6.48702C105.244 7.13341 105.602 7.59341 106.254 8.09566C106.344 8.15794 106.463 8.23535 106.496 8.23535C106.544 8.23535 106.615 8.17218 106.645 8.1575C106.928 7.8323 107.136 7.32115 107.136 6.67476C107.136 5.86599 106.764 5.29745 106.193 5.29745C105.674 5.29745 105.244 5.77079 105.244 6.48702Z" fill="#253746"/>
<path d="M124.81 1.13084C126.077 1.13084 127.182 1.1077 127.592 1.07033C127.592 1.51742 127.592 3.05132 127.635 4.01846C127.552 4.18084 127.197 4.21865 126.997 4.09631C126.802 2.90852 126.489 2.31507 125.741 2.11221C125.205 1.97163 124.713 1.94895 124.081 1.94895H123.078C122.248 1.94895 122.248 1.9921 122.248 3.13585V6.80288C122.248 7.31225 122.263 7.35007 122.719 7.35007H123.884C125.601 7.35007 125.916 7.31225 126.093 6.45144L126.253 5.75567C126.373 5.61331 126.745 5.61331 126.848 5.77524C126.826 6.30952 126.784 7.06491 126.784 7.82074C126.784 8.57656 126.826 9.31904 126.848 9.95431C126.745 10.114 126.373 10.114 126.253 9.97166L126.093 9.16912C125.916 8.31721 125.601 8.26738 123.884 8.26738H122.719C122.263 8.26738 122.248 8.31721 122.248 8.82747V11.6902C122.248 13.866 122.423 13.923 123.349 14.0057L124.179 14.1076C124.32 14.2544 124.3 14.6201 124.141 14.7006C122.88 14.6601 121.989 14.6356 121.123 14.6356C120.252 14.6356 119.365 14.6597 118.455 14.7006C118.301 14.6201 118.282 14.2544 118.414 14.1076L118.852 14.0471C119.777 13.923 119.959 13.866 119.959 11.6902V4.08163C119.959 1.90401 119.777 1.84618 118.852 1.70026L118.594 1.66557C118.455 1.51742 118.477 1.1513 118.634 1.06989C119.328 1.10681 120.214 1.13039 121.081 1.13039H124.811L124.81 1.13084Z" fill="#253746"/>
<path d="M131.149 12.2076C131.149 13.7188 131.228 13.9439 131.892 14.0475L132.246 14.108C132.389 14.2548 132.368 14.6205 132.213 14.701C131.484 14.6606 130.812 14.6361 130.08 14.6361C129.433 14.6361 128.758 14.6601 128.008 14.701C127.851 14.6205 127.831 14.2548 127.973 14.108L128.325 14.0475C128.997 13.9439 129.073 13.7188 129.073 12.2076V9.19538C129.073 8.26739 129.073 8.02671 128.581 7.72287L128.346 7.57873C128.283 7.49688 128.283 7.2086 128.367 7.10806C129.389 6.80244 130.378 6.34957 130.929 6.00168C131.045 6.02081 131.149 6.05951 131.206 6.16717C131.163 6.8367 131.149 7.82074 131.149 8.6651V12.2071L131.149 12.2076ZM128.842 2.29906C128.842 1.56014 129.355 1.01117 130.101 1.01117C130.852 1.01117 131.364 1.56014 131.364 2.29906C131.364 3.03264 130.852 3.58517 130.101 3.58517C129.355 3.58517 128.842 3.03264 128.842 2.29906Z" fill="#253746"/>
<path d="M136.335 7.47775C135.98 7.47775 135.961 7.51912 135.961 8.17085V11.3254C135.961 12.6182 136.139 13.7575 137.403 13.7575C137.797 13.7575 138.032 13.6178 138.348 13.3914C138.521 13.4123 138.642 13.5795 138.605 13.8024C138.209 14.3745 137.3 14.9288 136.101 14.9288C134.224 14.9288 133.886 13.8024 133.886 12.3691V8.21267C133.886 7.49732 133.852 7.4782 133.534 7.4782H132.838C132.644 7.37276 132.605 7.04312 132.783 6.92567C133.454 6.66142 133.907 6.38783 134.343 6.05996C134.716 5.77614 135.156 5.34684 135.427 4.79209C135.605 4.67554 135.881 4.73515 135.98 4.89575V6.12491C135.98 6.45189 135.98 6.51417 136.35 6.51417H138.305C138.429 6.57868 138.47 6.73616 138.47 6.94124C138.446 7.1917 138.364 7.37276 138.209 7.4782H136.334L136.335 7.47775Z" fill="#253746"/>
<path d="M145.73 6.57867C145.987 6.82201 146.12 7.14321 146.12 7.61966C146.12 8.26783 145.789 8.58012 145.628 8.58012C145.493 8.58012 145.392 8.5432 145.253 8.35814C144.82 7.76424 144.227 7.10851 143.46 7.10851C142.335 7.10851 141.167 8.24781 141.167 10.1794C141.167 11.8299 142.197 13.4127 143.991 13.4127C145.272 13.4127 145.729 12.9225 146.119 12.325C146.303 12.3041 146.52 12.4509 146.539 12.6978C145.825 14.3532 144.306 14.9288 143.066 14.9288C142.017 14.9288 140.989 14.4964 140.323 13.818C139.626 13.1186 139.177 12.0625 139.177 10.8721C139.177 8.47513 140.854 6.29351 144.034 6.29351C144.607 6.29351 145.178 6.36958 145.729 6.57823L145.73 6.57867Z" fill="#253746"/>
<path d="M150.443 6.92567C150.443 7.16901 150.486 7.26732 150.624 7.26732C151.314 6.73571 152.163 6.29396 153.151 6.29396C154.844 6.29396 155.68 7.41413 155.68 9.15089V12.208C155.68 13.7192 155.754 13.9443 156.427 14.048L156.882 14.1085C157.056 14.2553 157.034 14.621 156.838 14.7015C156.014 14.661 155.341 14.6365 154.607 14.6365C153.961 14.6365 153.286 14.6606 152.595 14.7015C152.438 14.621 152.422 14.2553 152.555 14.1085L152.854 14.0618C153.524 13.9443 153.599 13.7192 153.599 12.208V9.31994C153.599 8.33589 153.187 7.51956 152.023 7.51956C151.371 7.51956 150.919 7.84654 150.678 8.11435C150.463 8.35858 150.443 8.66598 150.443 9.46318V12.208C150.443 13.7192 150.521 13.9443 151.198 14.0618L151.485 14.1085C151.629 14.2553 151.607 14.621 151.449 14.7015C150.757 14.661 150.089 14.6365 149.362 14.6365C148.724 14.6365 148.055 14.6606 147.226 14.7015C147.068 14.621 147.048 14.2553 147.19 14.1085L147.622 14.048C148.293 13.9443 148.371 13.7192 148.371 12.208V3.42635C148.371 2.04904 148.353 1.90401 147.917 1.6451L147.639 1.45692C147.525 1.37329 147.506 1.04765 147.639 0.992484C148.414 0.762933 149.419 0.328744 150.227 0.00354628C150.345 -0.018697 150.463 0.0671622 150.502 0.164143C150.463 0.992929 150.443 2.25101 150.443 3.13585V6.92567H150.443Z" fill="#253746"/>
</svg>
