<?xml version="1.0" encoding="utf-8"?>
<!-- Generator: Adobe Illustrator 25.0.1, SVG Export Plug-In . SVG Version: 6.00 Build 0)  -->
<svg version="1.1" id="Icons" xmlns="http://www.w3.org/2000/svg" xmlns:xlink="http://www.w3.org/1999/xlink" x="0px" y="0px"
	 viewBox="0 0 20 20" style="enable-background:new 0 0 20 20;" xml:space="preserve">
<style type="text/css">
	.st0{fill:none;stroke:#253746;stroke-linejoin:round;}
	.st1{fill:none;}
	.st2{fill:none;stroke:#253746;stroke-linecap:round;stroke-linejoin:round;}
</style>
<path class="st0" d="M16.5,9.5v7c0,0.6-0.4,1-1,1h-12c-0.6,0-1-0.4-1-1v-7"/>
<polyline class="st0" points="9.5,6.5 9.5,9.5 9.5,17.5 "/>
<rect class="st1" width="20" height="20"/>
<rect x="1.5" y="6.5" class="st0" width="16" height="3"/>
<path class="st2" d="M9.5,6.3c1,0.4,2,0.2,2.8-0.4c0.7-0.5,0.8-1.5,0.3-2.2C12,3.1,11.1,3,10.4,3.6C9.7,4.3,9.4,5.3,9.5,6.3z"/>
<path class="st2" d="M9.4,6.3c-1,0.4-2,0.2-2.8-0.4C5.9,5.4,5.8,4.4,6.4,3.7C6.9,3.1,7.9,3,8.6,3.6C9.3,4.3,9.6,5.3,9.4,6.3z"/>
</svg>
