<svg width="20" height="20" viewBox="0 0 20 20" fill="none" xmlns="http://www.w3.org/2000/svg">
<path fill-rule="evenodd" clip-rule="evenodd" d="M8.63186 3.83602C5.98346 3.83602 3.83651 5.98297 3.83651 8.63137C3.83651 11.2798 5.98346 13.4267 8.63186 13.4267C11.2803 13.4267 13.4272 11.2798 13.4272 8.63137C13.4272 5.98297 11.2803 3.83602 8.63186 3.83602ZM2.87744 8.63137C2.87744 5.45329 5.45378 2.87695 8.63186 2.87695C11.8099 2.87695 14.3863 5.45329 14.3863 8.63137C14.3863 11.8094 11.8099 14.3858 8.63186 14.3858C5.45378 14.3858 2.87744 11.8094 2.87744 8.63137Z" fill="#253746"/>
<path fill-rule="evenodd" clip-rule="evenodd" d="M12.7017 12.0231L17.123 16.4444L16.4449 17.1225L12.0236 12.7012L12.7017 12.0231Z" fill="#253746"/>
</svg>
