<?xml version="1.0" encoding="utf-8"?>
<!-- Generator: Adobe Illustrator 25.0.1, SVG Export Plug-In . SVG Version: 6.00 Build 0)  -->
<svg version="1.1" xmlns="http://www.w3.org/2000/svg" xmlns:xlink="http://www.w3.org/1999/xlink" x="0px" y="0px"
	 viewBox="0 0 20 20" style="enable-background:new 0 0 20 20;" xml:space="preserve">
<style type="text/css">
	.st0{display:none;}
	.st1{display:inline;opacity:0.4;fill:#CF4A4A;}
	.st2{display:inline;opacity:0.2;fill:none;stroke:#CF4A4A;stroke-width:5.000000e-02;stroke-miterlimit:10;}
	.st3{fill:none;stroke:#253746;stroke-miterlimit:10;}
	.st4{fill:none;stroke:#253746;stroke-linejoin:round;stroke-miterlimit:10;}
</style>
<g id="Grid" class="st0">
	<path class="st1" d="M0,0v20h20V0H0z M18,19H1V2h17V19z"/>
	<circle class="st2" cx="9.5" cy="10.5" r="8"/>
	<rect x="2" y="3" class="st2" width="15" height="15"/>
	<rect x="1" y="4" transform="matrix(-1.836970e-16 1 -1 -1.836970e-16 20 1)" class="st2" width="17" height="13"/>
	<rect x="1" y="4" transform="matrix(-1 -1.224647e-16 1.224647e-16 -1 19 21)" class="st2" width="17" height="13"/>
</g>
<g id="Icon">
	<path class="st3" d="M24.6,13.3"/>
	<g>
		<path class="st4" d="M14.3,14"/>
		<polyline class="st4" points="4.3,3.4 6.3,3 7.7,8.8 		"/>
		<polyline class="st4" points="13.8,8.8 12.3,17.5 9.3,17.5 		"/>
		<path class="st4" d="M9.3,17.5h-3l-2-11c0,0,1.5-0.4,4.3-0.7H10c0.2,0,0.5,0,0.7,0.1"/>
		<path class="st4" d="M5.1,11.2c0,0,4.5-0.8,8.3,0"/>
		<path class="st4" d="M16.7,6.7c-0.4,1.6-2,2.6-3.6,2.2c-1.6-0.4-2.6-2-2.2-3.6c0.2-0.8,0.7-1.5,1.4-1.9c0.7-0.4,1.5-0.5,2.3-0.3
			C16.1,3.5,17.1,5.1,16.7,6.7z"/>
		<line class="st4" x1="15.2" y1="8.4" x2="12.2" y2="3.4"/>
		<line class="st4" x1="11.5" y1="7.9" x2="16.2" y2="4.3"/>
		<line class="st4" x1="10.8" y1="5.3" x2="16.7" y2="6.7"/>
		<path class="st4" d="M13.9,3"/>
	</g>
</g>
</svg>
