<svg width="150" height="17" viewBox="0 0 150 17" fill="none" xmlns="http://www.w3.org/2000/svg">
<g clip-path="url(#clip0_193_35963)">
<path d="M124.146 15.1251C123.75 15.059 123.311 14.9276 122.893 14.5319C122.101 13.7843 120.629 11.7183 119.749 10.4882C119.64 10.356 119.618 10.2024 119.749 10.0487C120.101 9.67534 120.849 9.0376 121.618 8.35608C122.124 7.9166 122.497 7.76294 123.223 7.60929L123.619 7.5432C123.772 7.36724 123.772 6.97155 123.575 6.88398C122.409 7.01616 121.112 7.05994 120.145 7.05994H119.508C119.266 7.16981 119.266 7.56468 119.464 7.71916L120.057 7.78525C120.321 7.82903 120.409 7.89512 120.409 8.00499C120.409 8.11486 120.233 8.35608 119.772 8.86164L118.914 9.80669C118.3 10.5097 117.86 10.6419 117.486 10.6419C117.069 10.6419 117.003 10.5981 117.003 10.3337V3.36649C117.003 2.42144 117.025 1.05839 117.069 0.179425C117.025 0.0695552 116.893 -0.0188365 116.761 0.00346792C115.859 0.355383 114.717 0.816342 113.882 1.05839C113.727 1.12447 113.75 1.47639 113.882 1.56395L114.123 1.71761C114.673 2.04722 114.694 2.2017 114.694 3.67379V13.1028C114.694 14.7294 114.607 14.9706 113.859 15.0813L113.398 15.1474C113.244 15.301 113.266 15.6967 113.442 15.7843C114.343 15.7405 115.09 15.7182 115.794 15.7182C116.607 15.7182 117.355 15.7405 118.277 15.7843C118.453 15.6967 118.475 15.301 118.321 15.1474L117.838 15.0813C117.09 14.9714 117.003 14.7294 117.003 13.1028V12.0479C117.003 11.4547 117.069 11.3664 117.332 11.3664C117.464 11.3664 117.75 11.4324 118.014 11.8067L119.816 14.3337C120.014 14.5972 120.08 14.7508 120.08 14.8615C120.08 14.9714 119.882 15.0813 119.662 15.1251L119.442 15.1474C119.245 15.301 119.266 15.6752 119.486 15.7843C120.388 15.7405 120.981 15.7182 121.86 15.7182C122.76 15.7182 123.575 15.7405 124.299 15.7843C124.498 15.6967 124.498 15.3233 124.366 15.1474L124.146 15.1251Z" fill="#5E5E5E"/>
<path d="M130.065 15.0814C129.318 14.9715 129.23 14.7295 129.23 13.1029V9.30041C129.23 8.39915 129.252 7.34423 129.296 6.61892C129.23 6.50905 129.12 6.46527 128.988 6.44296C128.373 6.81636 127.273 7.29962 126.131 7.63006C126.043 7.73993 126.043 8.04723 126.109 8.1348L126.373 8.28845C126.922 8.61806 126.922 8.88158 126.922 9.87124V13.1021C126.922 14.7287 126.834 14.9699 126.087 15.0806L125.691 15.1467C125.538 15.3003 125.559 15.696 125.735 15.7836C126.57 15.7398 127.318 15.7175 128.043 15.7175C128.856 15.7175 129.604 15.7398 130.417 15.7836C130.593 15.696 130.615 15.3003 130.46 15.1467L130.065 15.0814Z" fill="#5E5E5E"/>
<path d="M129.471 3.37977C129.471 2.58837 128.9 1.99524 128.065 1.99524C127.229 1.99524 126.658 2.58837 126.658 3.37977C126.658 4.17116 127.229 4.7643 128.065 4.7643C128.9 4.7643 129.471 4.17116 129.471 3.37977Z" fill="#5E5E5E"/>
<path d="M147.56 10.2238C146.724 9.82811 146.086 9.36632 146.086 8.72858C146.086 8.09084 146.614 7.58609 147.318 7.58609C148.174 7.58609 148.877 8.42127 149.208 9.43241C149.361 9.56376 149.736 9.49767 149.801 9.32254C149.801 8.33371 149.691 7.65218 149.471 7.19122C149.164 7.01526 148.329 6.75092 147.427 6.75092C145.603 6.75092 144.131 7.76205 144.153 9.47619C144.153 10.883 145.339 11.6959 146.482 12.2461C147.252 12.6195 147.977 13.1465 147.977 13.9602C147.977 14.7293 147.427 15.1911 146.746 15.1911C145.581 15.1911 144.768 14.0271 144.373 12.7954C144.218 12.6418 143.889 12.6641 143.757 12.84C143.713 13.7851 143.845 14.9061 144.064 15.3233C144.768 15.8511 145.669 16.0271 146.57 16.0271C148.306 16.0271 149.999 15.1911 149.999 13.2795C149.999 11.5431 148.746 10.7955 147.56 10.2238Z" fill="#5E5E5E"/>
<path d="M141.52 14.8178C141.146 14.8178 140.992 14.1362 140.992 12.1363V3.36649C140.992 2.42144 141.014 1.05839 141.058 0.179425C141.014 0.0695552 140.882 -0.0188365 140.75 0.00346792C139.871 0.355383 138.729 0.816342 137.871 1.05839C137.718 1.12447 137.739 1.47639 137.871 1.56395L138.179 1.76222C138.663 2.04804 138.685 2.2017 138.685 3.67379V6.55272C138.685 6.79476 138.64 6.88233 138.553 6.90463C138.267 6.81707 137.849 6.75015 137.278 6.75015C134.531 6.75015 132.003 8.64108 132.003 11.8058C132.003 14.0032 133.563 16.0255 136.07 16.0255C137.125 16.0255 137.937 15.5199 138.597 15.0367L138.707 15.059C138.75 15.1689 138.75 15.3448 138.729 15.6744L138.685 16.004C138.729 16.1362 138.838 16.2246 138.949 16.2461C139.74 15.8942 141.3 15.5208 142.421 15.4101C142.663 15.2787 142.619 14.7508 142.443 14.6195C142.113 14.7508 141.761 14.8178 141.52 14.8178ZM138.685 13.6092C138.685 13.9165 138.64 14.1148 138.531 14.2246C138.355 14.4229 137.761 14.7079 137.234 14.7079C135.674 14.7079 134.487 13.2135 134.487 10.9492C134.487 9.10286 135.431 7.63077 136.926 7.63077C137.607 7.63077 138.091 7.95955 138.398 8.37755C138.618 8.68569 138.685 8.99382 138.685 9.4333V13.6092Z" fill="#5E5E5E"/>
<path d="M35.5845 15.358L34.7213 15.2704C33.9497 15.1837 33.8605 14.94 33.8605 13.3019V10.2726C33.8605 9.18958 33.9894 8.68071 34.5007 8.68071C34.6337 8.68071 35.0088 8.72449 35.5589 9.10119C35.7374 9.21271 35.9373 9.27797 36.1554 9.27797C36.7526 9.27797 37.3986 8.85667 37.3986 7.99588C37.3986 7.42009 36.9558 6.91287 36.181 6.91287C35.4292 6.91287 34.6973 7.5754 34.0108 8.06279C33.8787 8.06279 33.7919 7.95292 33.7919 7.79679C33.7919 7.60101 33.8109 7.221 33.8365 6.80548C33.7919 6.66422 33.6573 6.60309 33.5259 6.60309C32.865 7.00126 31.6945 7.48783 30.742 7.79679C30.6519 7.90583 30.6519 8.21727 30.7238 8.30731L30.9865 8.45932C31.5375 8.7914 31.5375 9.05823 31.5375 10.0528V13.3027C31.5375 14.9417 31.4499 15.1845 30.699 15.2944L30.2984 15.3597C30.1456 15.515 30.1629 15.9123 30.3422 15.9991C31.1815 15.9586 31.9167 15.9354 32.642 15.9354C33.4607 15.9354 34.2116 15.9577 35.5408 15.9991C35.7192 15.9123 35.7374 15.515 35.5845 15.3597V15.358Z" fill="#5E5E5E"/>
<path d="M15.1728 6.91377C14.2847 6.91377 13.5545 7.20042 12.8473 7.6209C12.7176 7.6209 12.6755 7.53251 12.6755 7.21942V3.50366C12.6755 2.55531 12.6945 1.1807 12.7391 0.29843C12.6937 0.187733 12.5598 0.0976894 12.4293 0.119994C11.5214 0.476865 10.3748 0.940303 9.53139 1.1807C9.37691 1.24926 9.40169 1.602 9.53139 1.6937L9.84448 1.89279C10.3302 2.17696 10.3492 2.33392 10.3492 3.81593V13.7877C10.3492 14.6072 10.2881 15.7802 10.2881 15.8661C10.2881 15.9339 10.4145 16.0214 10.5029 16.0214C10.5706 16.0214 10.6144 16.0214 10.664 15.9966C10.7928 15.8446 10.949 15.6456 11.21 15.6456C11.4818 15.6456 12.5152 16.2445 14.155 16.2445C17.0538 16.2445 19.3941 14.4262 19.3941 11.2904C19.3941 8.83195 17.7576 6.91212 15.1736 6.91212L15.1728 6.91377ZM14.6366 15.3581C13.9981 15.3581 13.4685 15.026 13.1612 14.608C12.8027 14.1454 12.6747 13.3697 12.6747 12.3974V9.56552C12.6747 8.81295 12.7168 8.52299 12.9159 8.3933C13.0877 8.25865 13.5545 8.10664 13.9981 8.10664C15.5668 8.10664 16.9447 9.49861 16.9447 12.0843C16.9447 13.9678 16.1211 15.3581 14.6366 15.3581Z" fill="#5E5E5E"/>
<path d="M28.7247 13.4613C28.2175 14.2791 27.4872 14.5633 26.6025 14.5633C24.6356 14.5633 23.2634 12.9714 23.2634 10.9813C23.2634 10.7129 23.3064 10.693 23.7318 10.693H27.5558C28.4405 10.693 28.9486 10.6071 29.0841 10.408C29.1667 10.2288 29.1915 10.0974 29.1915 9.90164C29.1915 7.97271 27.5087 6.91367 25.8731 6.91367C22.9123 6.91367 21.2081 9.32255 21.2081 11.8231C21.2081 14.3419 22.9123 16.246 25.4765 16.246C26.8231 16.246 28.4595 15.5777 29.2138 13.814C29.1915 13.6133 28.9494 13.3919 28.7247 13.4613ZM25.6087 7.75215C26.5628 7.75215 27.0676 8.39319 27.0676 9.18955C27.0676 9.38863 26.9775 9.56707 26.8462 9.65381C26.6917 9.7422 26.4059 9.80746 25.7607 9.80746H23.7508C23.489 9.80746 23.4419 9.7422 23.4419 9.65381C23.4419 9.18955 24.1292 7.75215 25.6087 7.75215Z" fill="#5E5E5E"/>
<path d="M95.2096 3.9894C96.0497 3.9894 96.6214 3.3971 96.6214 2.59909C96.6214 1.80109 96.0497 1.20465 95.2096 1.20465C94.3695 1.20465 93.792 1.80191 93.792 2.59909C93.792 3.39627 94.3661 3.9894 95.2096 3.9894Z" fill="#5E5E5E"/>
<path d="M8.69048 14.8293C8.62605 14.8293 8.31543 15.0714 7.93956 15.0714C7.14404 15.0714 6.81195 14.4105 6.87886 13.1243L7.03251 9.67532C7.12256 7.73071 6.03625 6.91205 4.29485 6.91205C3.1631 6.91205 1.57205 7.66462 0.886396 8.30649C0.153653 8.99215 0.0206523 9.45228 0.0206523 9.72076C0.0206523 9.9182 0.153653 10.0718 0.443611 10.0718C0.928527 10.0718 1.5481 9.87689 1.85788 9.67532C2.09745 9.51919 2.23292 9.29945 2.27671 8.8798C2.36923 8.23792 2.83019 7.90418 3.45141 7.90418C4.53442 7.90418 4.84089 8.8798 4.79959 10.0082L4.77729 10.5832C4.77729 10.8029 4.71285 11.0037 4.26346 11.1582C3.45141 11.4696 2.6088 11.7777 1.8331 12.0396C0.311436 12.5724 0 13.3019 0 14.0999C0 15.2035 0.750091 16.2444 2.2544 16.2444C3.05241 16.2444 3.71741 15.933 4.13459 15.6686C4.4675 15.4662 4.62115 15.3564 4.73185 15.3564C4.8409 15.3564 4.92846 15.4662 5.08542 15.624C5.50342 16.0891 6.12381 16.2444 6.68143 16.2444C7.36543 16.2444 8.44761 15.8875 8.88792 15.2688C8.95896 15.0697 8.80613 14.8277 8.69048 14.8277V14.8293ZM4.66411 13.9677C4.64181 14.498 4.39811 15.0267 3.60506 15.0267C2.76245 15.0267 2.3684 14.3204 2.3684 13.7455C2.3684 12.793 2.94089 12.4857 3.56128 12.2659C3.95615 12.1115 4.35598 11.9966 4.53441 11.9966C4.64263 11.9966 4.71285 12.1313 4.71285 12.3742L4.66411 13.9677Z" fill="#5E5E5E"/>
<path d="M45.757 13.4348C45.3167 14.0775 44.8062 14.6087 43.3696 14.6087C41.3548 14.6087 40.2024 12.9061 40.2024 11.1185C40.2024 9.03672 41.5084 7.79593 42.7691 7.79593C43.6331 7.79593 44.2965 8.50554 44.7839 9.14659C44.9392 9.34816 45.0474 9.38946 45.2019 9.38946C45.3779 9.38946 45.757 9.0582 45.757 8.34859C45.757 7.84302 45.6026 7.4878 45.3167 7.22015C44.6955 7.00123 44.052 6.91367 43.4126 6.91367C39.853 6.91367 37.9728 9.27794 37.9728 11.8661C37.9728 13.1507 38.4816 14.3006 39.2557 15.0515C40.0074 15.7818 41.1574 16.2468 42.3271 16.2468C43.7215 16.2468 45.4233 15.6264 46.2221 13.8371C46.2006 13.5703 45.9561 13.4142 45.757 13.4348Z" fill="#5E5E5E"/>
<path d="M97.2209 15.2927C96.4683 15.1829 96.3807 14.94 96.3807 13.3027V9.47789C96.3807 8.57001 96.3997 7.50931 96.4452 6.7807C96.3807 6.66422 96.2692 6.62539 96.1345 6.60226C95.5158 6.97648 94.4138 7.46883 93.2622 7.79514C93.178 7.90501 93.178 8.21645 93.2374 8.30566L93.5026 8.45767C94.0553 8.79058 94.0553 9.05658 94.0553 10.052V13.3027C94.0553 14.94 93.9694 15.1829 93.2135 15.2927L92.8186 15.3572C92.6608 15.5133 92.6897 15.9115 92.8616 15.9991C93.7017 15.9586 94.4567 15.9346 95.1845 15.9346C96.0032 15.9346 96.7566 15.9586 97.5752 15.9991C97.7537 15.9123 97.7719 15.5141 97.619 15.3572L97.2209 15.2927Z" fill="#5E5E5E"/>
<path d="M106.02 13.4605C105.512 14.2783 104.785 14.5625 103.901 14.5625C101.931 14.5625 100.558 12.9715 100.558 10.9806C100.558 10.7121 100.605 10.6923 101.024 10.6923H104.849C105.735 10.6923 106.248 10.6055 106.376 10.4064C106.464 10.2272 106.489 10.0958 106.489 9.90005C106.489 7.97113 104.804 6.91125 103.169 6.91125C100.206 6.91125 98.5013 9.32014 98.5013 11.8207C98.5013 14.3395 100.206 16.2436 102.769 16.2436C104.122 16.2436 105.755 15.5753 106.506 13.8116C106.489 13.6109 106.248 13.3911 106.02 13.4605ZM102.903 7.75139C103.858 7.75139 104.362 8.39326 104.362 9.18879C104.362 9.3887 104.277 9.56631 104.141 9.65305C103.987 9.74144 103.697 9.80671 103.056 9.80671H101.046C100.781 9.80671 100.735 9.74144 100.735 9.65305C100.735 9.18879 101.422 7.75139 102.903 7.75139Z" fill="#5E5E5E"/>
<path d="M81.3418 15.2927C80.5901 15.1829 80.5 14.94 80.5 13.301V9.87771C80.5 8.15283 79.6607 6.91205 77.7995 6.91205C76.762 6.91205 76.0127 7.30857 74.9727 7.9521C74.705 8.1074 74.5761 8.17101 74.4861 8.17101C74.3985 8.17101 74.2697 8.03883 74.1325 7.84223C73.8236 7.42009 73.095 6.91205 72.145 6.91205C70.6365 6.91205 70.0665 7.4424 68.9818 8.01818C68.8472 7.99588 68.7803 7.95209 68.7803 7.79679C68.7803 7.62001 68.7803 7.19953 68.8249 6.7807C68.7803 6.69065 68.6894 6.60309 68.5391 6.60309C67.8319 7.00126 66.6324 7.53244 65.6593 7.79679C65.5726 7.90583 65.5726 8.21727 65.6395 8.30649L65.9014 8.45849C66.459 8.7914 66.459 9.05823 66.459 10.052V13.3019C66.459 14.9408 66.3656 15.1837 65.6147 15.2936L65.2157 15.3588C65.0612 15.5141 65.0868 15.9115 65.2644 15.9982C66.1021 15.9577 66.834 15.9346 67.5626 15.9346C68.3805 15.9346 69.1305 15.9569 69.9038 15.9982C70.0814 15.9115 70.1062 15.5141 69.9525 15.3588L69.6204 15.3175C68.8654 15.1845 68.7786 14.9417 68.7786 13.3027V10.3403C68.7786 9.47871 68.7985 9.2788 69.0669 8.92441C69.3098 8.59066 69.8864 8.23875 70.634 8.23875C71.9153 8.23875 72.316 9.12432 72.316 10.2949V13.3027C72.316 14.9417 72.23 15.1845 71.4725 15.3175L71.1892 15.3588C71.0355 15.5141 71.0529 15.9115 71.2329 15.9982C71.9574 15.9577 72.7092 15.9346 73.4411 15.9346C74.2664 15.9346 74.9917 15.9569 75.7682 15.9982C75.9433 15.9115 75.9632 15.5141 75.8103 15.3588L75.4774 15.3175C74.7273 15.1845 74.6373 14.9417 74.6373 13.3027V10.0528C74.6373 9.43328 74.6844 9.1681 74.8991 8.90375C75.1709 8.57166 75.7426 8.23875 76.3828 8.23875C77.7797 8.23875 78.1787 9.12432 78.1787 10.2949V13.3027C78.1787 14.9417 78.087 15.1845 77.3353 15.2944L76.985 15.3597C76.8281 15.515 76.8504 15.9123 77.0305 15.9991C77.8235 15.9586 78.5736 15.9354 79.3055 15.9354C80.1258 15.9354 80.8751 15.9577 81.8267 15.9991C81.9184 15.9123 82.0258 15.515 81.8267 15.3597L81.3418 15.2944V15.2927Z" fill="#5E5E5E"/>
<path d="M87.8656 6.91296C86.98 6.91296 86.2464 7.19962 85.541 7.6201C85.4104 7.6201 85.3633 7.53171 85.3633 7.21862V3.50286C85.3633 2.55451 85.3856 1.17989 85.436 0.297624C85.3856 0.186928 85.2551 0.096884 85.1213 0.120015C84.2159 0.476886 83.0676 0.940323 82.2234 1.18072C82.0689 1.24928 82.0904 1.60202 82.2234 1.69372L82.5389 1.89198C83.023 2.17698 83.0478 2.33394 83.0478 3.81512V13.7869C83.0478 14.6063 82.9809 15.7794 82.9809 15.8661C82.9809 15.9339 83.1098 16.0214 83.199 16.0214C83.2667 16.0214 83.3064 16.0214 83.3526 15.9975C83.4889 15.8455 83.6476 15.6464 83.9102 15.6464C84.1729 15.6464 85.2089 16.2453 86.8445 16.2453C89.7466 16.2453 92.0894 14.4271 92.0894 11.2912C92.0894 8.8328 90.4537 6.91214 87.8664 6.91214L87.8656 6.91296ZM87.3352 15.3581C86.6909 15.3581 86.1613 15.026 85.854 14.608C85.4972 14.1454 85.3633 13.3697 85.3633 12.3974V9.56554C85.3633 8.81215 85.4104 8.52301 85.607 8.39332C85.7863 8.25867 86.2464 8.10666 86.6909 8.10666C88.2654 8.10666 89.6301 9.49863 89.6301 12.0851C89.6301 13.9686 88.8164 15.3581 87.3352 15.3581Z" fill="#5E5E5E"/>
<path d="M51.5035 8.67988C51.6407 8.67988 52.0182 8.72367 52.5684 9.10119C52.7443 9.21271 52.9459 9.27715 53.1656 9.27715C53.7662 9.27715 54.4056 8.85584 54.4056 7.99505C54.4056 7.4201 53.9612 6.91205 53.1871 6.91205C52.4354 6.91205 51.71 7.57457 51.017 8.06197C50.8831 8.06197 50.7972 7.95127 50.7972 7.79597C50.7972 7.60018 50.8212 7.22018 50.8443 6.80466C50.7972 6.6634 50.6634 6.60226 50.5353 6.60226C49.872 7.00044 48.7014 7.48701 47.7465 7.79597C47.6548 7.90501 47.6548 8.21645 47.7233 8.30649L47.9893 8.45849C48.5445 8.79058 48.5445 9.05741 48.5445 10.052V13.3027C48.5445 14.9408 48.4552 15.1837 47.7052 15.2936L47.3086 15.3588C47.1517 15.5141 47.1699 15.9115 47.3483 15.9982C48.1901 15.9577 48.917 15.9346 49.649 15.9346C50.4668 15.9346 51.2177 15.9569 52.5485 15.9982C52.7204 15.9115 52.746 15.5141 52.5882 15.3588L51.7282 15.2713C50.9533 15.1845 50.8674 14.9408 50.8674 13.3027V10.2726C50.8674 9.18958 50.9963 8.68071 51.5044 8.68071L51.5035 8.67988Z" fill="#5E5E5E"/>
<path d="M59.8207 6.91205C57.2309 6.91205 54.9798 8.76745 54.9798 11.7339C54.9798 14.6286 57.1004 16.2444 59.6406 16.2444C62.2742 16.2444 64.4898 14.6071 64.4898 11.4688C64.4898 8.58901 62.3238 6.91205 59.8207 6.91205ZM59.9075 15.3564C58.3181 15.3564 57.5895 13.4142 57.5895 11.3994C57.5895 8.94671 58.4742 7.79597 59.601 7.79597C61.24 7.79597 61.8769 9.98676 61.8769 11.8446C61.8769 13.5456 61.4366 15.3564 59.9075 15.3564Z" fill="#5E5E5E"/>
</g>
<defs>
<clipPath id="clip0_193_35963">
<rect width="149.999" height="16.2468" fill="white"/>
</clipPath>
</defs>
</svg>
