<svg width="40" height="15" viewBox="0 0 40 15" fill="none" xmlns="http://www.w3.org/2000/svg">
<path fill-rule="evenodd" clip-rule="evenodd" d="M7.35134 8.22396C7.92146 8.22396 8.0113 8.17765 7.84319 7.66496L6.98223 5.10617C6.62932 3.984 6.50659 3.57969 6.40007 3.42871H6.36488C6.27966 3.57969 6.11849 4.10951 5.74428 5.10617L4.88332 7.60753C4.66195 8.22396 4.71799 8.22396 5.21585 8.22396H7.35134ZM4.88362 9.1797C4.35241 9.1797 4.37187 9.1797 4.18522 9.75815L3.34418 12.3114C2.93385 13.5697 3.01258 13.6364 3.77628 13.7411L4.37187 13.8504C4.52007 14.0009 4.49737 14.3853 4.33157 14.4626C3.673 14.4214 2.99868 14.4214 2.15116 14.4015C1.47869 14.4015 0.83772 14.4214 0.119405 14.4626C-0.0241651 14.3631 -0.0468585 14.0393 0.0985643 13.8504L0.714064 13.7411C1.31243 13.6503 1.53612 13.4697 1.84734 12.762C2.08863 12.2109 2.41607 11.317 2.84817 10.1625L5.66354 2.57547C5.93354 1.89142 6.11879 1.38337 6.05673 1.01981C6.77505 0.873463 7.454 0 7.49938 0C7.65963 0 7.7592 0.0574281 7.84349 0.167653C8.17324 1.12494 8.44139 2.12762 8.77068 3.08723L11.7278 12.0205C12.1992 13.4437 12.302 13.5947 13.352 13.7832L13.659 13.8504C13.8225 14.0009 13.8225 14.3631 13.6812 14.4626C12.8323 14.4214 12.0774 14.4015 11.0085 14.4015C10.1239 14.4015 9.21945 14.4395 8.50206 14.4626C8.33348 14.3631 8.31496 13.9754 8.44139 13.8504L8.89155 13.7832C9.63117 13.7045 9.69323 13.5697 9.42878 12.6555L8.45667 9.75815C8.25382 9.1797 8.18945 9.1797 7.62072 9.1797H4.88362Z" fill="#253746"/>
<path fill-rule="evenodd" clip-rule="evenodd" d="M37.0591 0.33591C38.3776 0.33591 39.529 0.311364 39.9551 0.272461C39.9551 0.73837 39.9551 2.33478 39.9995 3.34209C39.9134 3.51067 39.5438 3.5505 39.3363 3.42313C39.133 2.18658 38.807 1.5683 38.0289 1.35711C37.4708 1.21076 36.9582 1.18761 36.3 1.18761H35.2552C34.392 1.18761 34.3919 1.23253 34.3919 2.42324V6.24082C34.3919 6.7711 34.4082 6.81001 34.8824 6.81001H36.0949C37.883 6.81001 38.2105 6.7711 38.3952 5.87495L38.562 5.15061C38.6861 5.00241 39.0742 5.00241 39.1807 5.17145C39.158 5.72767 39.114 6.51407 39.114 7.30092C39.114 8.09102 39.158 8.86074 39.1807 9.52209C39.0742 9.68836 38.6861 9.68836 38.562 9.54016L38.3952 8.70421C38.2105 7.81778 37.883 7.76544 36.0949 7.76544H34.8824C34.4082 7.76544 34.3919 7.81778 34.3919 8.34899V11.3288C34.3919 13.5944 34.5744 13.6537 35.5382 13.7398L36.4015 13.8459C36.5483 13.9987 36.5284 14.3794 36.3626 14.4632C35.0487 14.4211 34.1219 14.3956 33.2202 14.3956C32.313 14.3956 31.3899 14.4211 30.4424 14.4632C30.2826 14.3794 30.2627 13.9987 30.4002 13.8459L30.8555 13.7829C31.8188 13.6537 32.0078 13.5944 32.0078 11.3288V3.40785C32.0078 1.14083 31.8188 1.08016 30.8555 0.928716L30.5869 0.892592C30.4424 0.73837 30.4651 0.357214 30.6286 0.272461C31.3515 0.311364 32.2741 0.33591 33.1767 0.33591H37.0591Z" fill="#253746"/>
<path fill-rule="evenodd" clip-rule="evenodd" d="M19.5485 3.2998C21.2652 3.2998 22.3094 4.34401 22.3094 5.67139C22.3094 6.82639 21.3934 7.37071 20.8397 7.69972C20.7825 7.73369 20.7292 7.76537 20.6812 7.79519C21.6192 8.29074 22.5572 9.28185 23.3182 10.273C23.7076 9.60042 23.9554 9.10487 24.2562 8.39693C24.504 7.83059 24.6987 7.31733 24.6987 7.15805C24.6987 6.99876 24.5217 6.89257 24.2208 6.83948L23.9023 6.78638C23.743 6.68019 23.7607 6.23773 23.9554 6.16694H24.681C25.7339 6.16694 26.6917 6.12468 27.4973 6.08914C27.7344 6.07868 27.9583 6.0688 28.1676 6.06075C28.3623 6.13154 28.3977 6.574 28.203 6.68019L27.7251 6.75099C27.1411 6.83948 26.7517 7.10495 26.5393 7.28194C26.2223 7.52689 25.8819 8.04167 25.4893 8.63525C25.3997 8.7707 25.3073 8.91039 25.212 9.05177L24.1501 10.6623C24.0616 10.7862 23.9377 10.9632 23.9023 11.1225H23.9377C23.9377 11.0909 23.9447 11.1051 23.976 11.1681C24.0149 11.2464 24.0914 11.4003 24.2385 11.6357C24.3317 11.7582 24.4212 11.8858 24.5114 12.0142C25.0208 12.7403 25.5497 13.4941 26.8579 13.4941C27.495 13.4941 28.1853 13.1932 28.4508 13.0162C28.5923 13.0693 28.6985 13.2994 28.6631 13.4587C28.2207 13.9896 27.0172 14.8745 25.1412 14.8745C23.9023 14.8745 23.1766 14.4852 22.9466 14.1135C22.9078 14.047 22.8534 13.9649 22.7915 13.8715C22.6558 13.6667 22.4841 13.4076 22.3625 13.1401C21.3891 14.0604 20.4334 14.8745 18.7875 14.8745C16.4336 14.8745 15 13.5295 15 11.7065C15 9.65352 16.8229 8.62701 17.7432 8.23765C17.1061 7.7421 16.5929 6.96337 16.5929 6.11384C16.5929 4.32631 18.1149 3.2998 19.5485 3.2998ZM17.3535 11.034C17.3535 12.5383 18.4508 13.4409 19.7428 13.4409C21.0702 13.4409 21.8843 12.379 21.8843 12.3259C21.8843 12.2919 21.8553 12.2434 21.7786 12.1153C21.7356 12.0434 21.6775 11.9463 21.6011 11.8127C20.8932 10.6092 19.7074 9.63579 18.9641 9.15793C18.9123 9.12344 18.8658 9.09104 18.8238 9.06177C18.6934 8.97091 18.6062 8.91016 18.5393 8.91016C18.4508 8.91016 17.3535 9.61809 17.3535 11.034ZM19.5834 4.07812C20.309 4.07812 20.6453 4.76836 20.6453 5.4232C20.6453 6.44971 20.0612 7.19304 19.8843 7.26383C19.7427 7.22843 18.5215 6.62669 18.5215 5.37011C18.5215 4.62677 18.9816 4.07812 19.5834 4.07812Z" fill="#253746"/>
</svg>
