<svg width="20" height="20" viewBox="0 0 20 20" fill="none" xmlns="http://www.w3.org/2000/svg">
<path fill-rule="evenodd" clip-rule="evenodd" d="M3.5 6C3.5 5.72386 3.72386 5.5 4 5.5H16C16.2761 5.5 16.5 5.72386 16.5 6V17C16.5 17.8261 15.8261 18.5 15 18.5H5C4.17386 18.5 3.5 17.8261 3.5 17V6ZM4.5 6.5V17C4.5 17.2739 4.72614 17.5 5 17.5H15C15.2739 17.5 15.5 17.2739 15.5 17V6.5H4.5Z" fill="#253746"/>
<path fill-rule="evenodd" clip-rule="evenodd" d="M10 2.5C8.61614 2.5 7.5 3.61614 7.5 5V8.5H6.5V5C6.5 3.06386 8.06386 1.5 10 1.5C11.9361 1.5 13.5 3.06386 13.5 5V8.5H12.5V5C12.5 3.61614 11.3839 2.5 10 2.5Z" fill="#253746"/>
</svg>
