<svg width="20" height="20" viewBox="0 0 20 20" fill="none" xmlns="http://www.w3.org/2000/svg">
<path fill-rule="evenodd" clip-rule="evenodd" d="M9.29861 4.91599L9.99825 5.53425L10.6973 4.91652C12.2487 3.4376 14.7745 3.44161 16.3305 4.92241C17.8896 6.40617 17.8898 8.82327 16.3312 10.3073L16.3305 10.308L10.4336 15.9636C10.3437 16.1031 10.1831 16.1905 10.0076 16.1905H9.98891C9.81337 16.1905 9.65281 16.1031 9.56288 15.9636L3.66602 10.308L3.6653 10.3073C2.10513 8.82181 2.11818 6.40559 3.6648 4.92357C5.21331 3.43975 7.73958 3.43926 9.29861 4.91599ZM9.99825 15.0296L15.6223 9.63562L15.6236 9.63431C16.7921 8.52231 16.7921 6.7081 15.6236 5.5961C14.4543 4.48326 12.5576 4.48493 11.3992 5.59494C11.3944 5.5995 11.3896 5.60396 11.3846 5.60833L10.3383 6.53293C10.1465 6.70242 9.84997 6.70242 9.65816 6.53293L8.61187 5.60833C8.60735 5.60433 8.6029 5.60025 8.59854 5.5961C7.42918 4.48326 5.53247 4.48493 4.37407 5.59494C3.21178 6.70868 3.20592 8.52377 4.37286 9.63431L4.37423 9.63562L9.99825 15.0296Z" fill="#253746"/>
</svg>
