<svg xmlns="http://www.w3.org/2000/svg" viewBox="0 0 24 24" fill="currentColor"><path d="M12 2C6.48 2 2 6.48 2 12c0 4.08 2.46 7.58 5.97 9.12-.08-.72-.16-1.83.03-2.62.17-.71 1.12-4.74 1.12-4.74s-.29-.57-.29-1.41c0-1.32.77-2.31 1.72-2.31.81 0 1.2.61 1.2 1.34 0 .81-.52 2.03-.79 3.16-.22.94.47 1.71 1.4 1.71 1.68 0 2.97-1.77 2.97-4.33 0-2.27-1.63-3.85-3.96-3.85-2.7 0-4.28 2.02-4.28 4.11 0 .81.31 1.69.7 2.16.08.09.09.17.07.27-.07.3-.24.94-.27 1.07-.04.18-.14.22-.33.13-1.23-.57-2-2.37-2-3.81 0-3.1 2.25-5.95 6.49-5.95 3.41 0 6.06 2.43 6.06 5.67 0 3.39-2.14 6.11-5.1 6.11-1 0-1.93-.52-2.25-1.13l-.61 2.33c-.22.85-.82 1.92-1.22 2.57.92.28 1.89.44 2.91.44 5.52 0 10-4.48 10-10S17.52 2 12 2z"/></svg>