<?xml version="1.0" encoding="UTF-8"?>
<svg id="Layer_1" data-name="Layer 1" xmlns="http://www.w3.org/2000/svg" viewBox="0 0 615.6 50.2">
  <path d="M16.1,30.6L0,1h10.7l7.3,14.3c1.5,2.9,3.2,6.9,3.2,6.9h.1s1.8-4,3.2-6.9L31.6,1h10.3l-16.1,29.6v18.6h-9.8v-18.6h.1Z"/>
  <path d="M37.7,31.9c0-10.3,7.3-18.3,18.1-18.3s18.1,7.9,18.1,18.3-7.3,18.3-18.1,18.3-18.1-7.9-18.1-18.3ZM64.6,31.9c0-6.7-3.2-11.3-8.8-11.3s-8.8,4.6-8.8,11.3,3.1,11.2,8.8,11.2,8.8-4.5,8.8-11.2Z"/>
  <path d="M101.3,49.1v-4h-.2c-2.4,3.2-5.1,5-9.9,5-7.7,0-12-4.9-12-12.5V14.6h9.1v21.5c0,4,1.8,6.3,5.7,6.3s7-3.2,7-7.8V14.6h9.2v34.5s-8.9,0-8.9,0Z"/>
  <path d="M126.3,20.1h.2c2.1-3.9,4.5-5.9,8.5-5.9s1.6,0,2.2.3v8h-.2c-6-.6-10.3,2.6-10.3,9.8v16.8h-9.2V14.6h8.8v5.5h0Z"/>
  <path d="M155.9,1h21.2c5.6,0,9.8,1.6,12.6,4.5,2.7,2.8,4.3,6.5,4.3,11,0,9.1-6,15.2-16.1,15.2h-11.9v17.5h-10.1V1h0ZM166,23.7h10.1c5.1,0,7.8-2.8,7.8-7.2s-2.8-7.1-7.7-7.1h-10.3v14.3h.1Z"/>
  <path d="M196.8,31.8c0-10.2,7-18.2,17.1-18.2s17.1,8.5,17.1,20.8h-25.1c.7,5.3,3.6,8.6,8.8,8.6s5.7-1.6,6.7-4.2h9c-1.3,6.1-6.7,11.3-15.6,11.3s-17.9-8-17.9-18.3h-.1ZM205.9,28.1h15.4c-.3-4.4-3.2-7.4-7.3-7.4s-7.2,2.9-8,7.4h-.1Z"/>
  <path d="M245.3,20.1h.2c2.1-3.9,4.5-5.9,8.5-5.9s1.6,0,2.2.3v8h-.2c-6-.6-10.3,2.6-10.3,9.8v16.8h-9.2V14.6h8.8v5.5h0Z"/>
  <path d="M259.4,38h8.5c.6,4,3.4,5.7,7.6,5.7s6.4-1.6,6.4-4-4.4-3.6-9.1-4.6c-6.2-1.2-12.3-2.9-12.3-10.4s6.2-11,14.1-11,14.2,4.5,14.8,11.4h-8.3c-.4-3.7-2.8-5.1-6.7-5.1s-5.9,1.3-5.9,3.8,4.6,3.2,9.5,4.2c5.8,1.2,12.2,2.8,12.2,10.9s-5.9,11.1-14.6,11.1-15.6-4.8-16.2-12.2h0v.2Z"/>
  <path d="M294.2,31.9c0-10.3,7.3-18.3,18.1-18.3s18.1,7.9,18.1,18.3-7.3,18.3-18.1,18.3-18.1-7.9-18.1-18.3ZM321.1,31.9c0-6.7-3.2-11.3-8.8-11.3s-8.8,4.6-8.8,11.3,3.1,11.2,8.8,11.2,8.8-4.5,8.8-11.2Z"/>
  <path d="M345,19.3h.2c2.4-3.7,5.5-5.7,10.2-5.7,7.2,0,11.9,5.4,11.9,12.9v22.6h-9.2v-21.2c0-3.7-2.2-6.3-6-6.3s-7,3.2-7,7.9v19.6h-9.2V14.6h9v4.7h.1Z"/>
  <path d="M395.1,45.3h-.1c-1.8,2.6-4.3,4.6-10.2,4.6s-12.1-3.7-12.1-10.6,6.2-10,13.9-11.1c5.7-.8,8.4-1.3,8.4-3.9s-1.9-4.1-5.8-4.1-6.4,1.6-6.7,4.8h-8.2c.3-6.1,4.8-11.4,14.9-11.4s14.6,4.6,14.6,12.7v17.6c0,2.6.4,4.2,1.2,4.8v.3h-8.8c-.5-.7-.9-2.3-1.1-3.8h0v.1ZM395.1,36.9v-5.2c-1.6.9-4.1,1.5-6.4,2-4.8,1.1-7.2,2.2-7.2,5.4s2.2,4.4,5.4,4.4c5.3,0,8.2-3.2,8.2-6.6Z"/>
  <path d="M411.1,1h9.2v48.1h-9.2V1Z"/>
  <path d="M441.1,1h21.6c5.2,0,9.2,1.3,11.7,3.5,2.6,2.4,3.8,5.3,3.8,9s-3,8.1-7.6,9.6v.2c5.3,1.6,9,6,9,11.9s-1.4,7.6-4.3,10c-2.8,2.4-7,3.8-12.1,3.8h-22.1V1h0ZM461.5,20.4c4.3,0,7.2-2,7.2-5.8s-2.6-5.7-7-5.7h-10.8v11.4h10.6v.1ZM450.9,41h11.3c4.7,0,7.6-2.6,7.6-6.5s-3.4-6.9-7.8-6.9h-11v13.5h-.1v-.1Z"/>
  <path d="M484.9,31.8c0-10.2,7-18.2,17.1-18.2s17.1,8.5,17.1,20.8h-25.1c.7,5.3,3.6,8.6,8.8,8.6s5.7-1.6,6.7-4.2h9c-1.3,6.1-6.7,11.3-15.6,11.3s-17.9-8-17.9-18.3h-.1ZM494.1,28.1h15.4c-.3-4.4-3.2-7.4-7.3-7.4s-7.2,2.9-8,7.4h-.1Z"/>
  <path d="M522.5,38h8.5c.6,4,3.4,5.7,7.6,5.7s6.4-1.6,6.4-4-4.4-3.6-9.1-4.6c-6.2-1.2-12.3-2.9-12.3-10.4s6.2-11,14.1-11,14.2,4.5,14.8,11.4h-8.3c-.4-3.7-2.8-5.1-6.7-5.1s-5.9,1.3-5.9,3.8,4.6,3.2,9.5,4.2c5.8,1.2,12.2,2.8,12.2,10.9s-5.9,11.1-14.6,11.1-15.6-4.8-16.2-12.2h0v.2Z"/>
  <path d="M556,14.6h4.8V3.8h9v10.8h5.9v6.1h-5.9v18.3c0,2.6,1.4,3.4,3.4,3.4h2.7v6.7h-5.7c-3.6,0-9.4-1.8-9.4-8.3v-20.3h-4.8v-6.1h0v.2Z"/>
  <path d="M601,41.5l-5.4-5.6,9.1-9.4-9.1-9.4,5.4-5.6,14.6,15-14.6,15Z"/>
</svg>